<?xml version="1.0" standalone="no"?>
<!DOCTYPE svg PUBLIC "-//W3C//DTD SVG 20010904//EN"
 "http://www.w3.org/TR/2001/REC-SVG-20010904/DTD/svg10.dtd">
<svg version="1.0" xmlns="http://www.w3.org/2000/svg"
 width="512.000000pt" height="512.000000pt" viewBox="0 0 512.000000 512.000000"
 preserveAspectRatio="xMidYMid meet">
<metadata>
Created by potrace 1.14, written by Peter Selinger 2001-2017
</metadata>
<g transform="translate(0.000000,512.000000) scale(0.100000,-0.100000)"
fill="#000000" stroke="none">
<path d="M2210 4175 c-66 -18 -94 -38 -137 -94 -43 -56 -66 -137 -61 -216 l4
-62 -116 -7 c-63 -3 -132 -10 -152 -15 -26 -6 -42 -5 -55 4 -33 23 -132 47
-247 59 l-111 13 79 8 c139 14 310 1 400 -29 79 -27 108 -27 71 0 -62 45 -252
72 -407 56 -62 -6 -122 -14 -133 -18 -30 -10 75 65 115 83 60 25 177 43 286
43 92 0 109 3 134 21 25 19 37 21 92 16 61 -6 62 -6 34 9 -16 9 -46 17 -67 18
-21 1 -46 9 -56 18 -34 29 -62 38 -119 38 -75 0 -141 -31 -159 -74 -12 -29
-20 -33 -79 -45 -67 -13 -163 -63 -202 -105 -20 -21 -20 -38 2 -64 1 -2 55
-10 119 -17 65 -8 119 -16 121 -18 3 -2 -19 -29 -49 -59 -113 -116 -168 -229
-221 -450 -19 -78 -36 -154 -38 -168 -3 -24 -4 -24 -23 10 -12 22 -19 55 -19
88 0 32 -3 46 -7 35 -19 -47 0 -133 38 -175 11 -13 16 -41 18 -105 4 -140 50
-236 140 -289 25 -14 45 -28 45 -31 0 -2 -22 -30 -48 -61 -66 -77 -107 -139
-145 -220 -30 -63 -32 -74 -32 -177 0 -99 3 -116 28 -170 15 -32 39 -74 52
-91 32 -42 31 -44 -7 -33 -18 5 -65 9 -104 9 -59 0 -81 -5 -125 -28 -63 -33
-102 -84 -96 -124 3 -21 -1 -29 -17 -34 -41 -12 -98 -58 -122 -99 -30 -52 -30
-96 0 -160 42 -90 138 -154 233 -155 45 0 51 -2 46 -19 -8 -31 30 -61 78 -61
22 0 49 5 60 11 17 8 24 6 40 -15 46 -58 210 -81 377 -51 l82 14 53 -53 c44
-46 61 -56 111 -67 69 -15 172 -2 237 31 l39 20 40 -20 c50 -25 143 -39 211
-30 29 4 68 2 86 -3 31 -10 33 -13 33 -57 0 -186 146 -305 375 -303 80 0 150
21 212 65 53 36 97 97 82 114 -5 7 -7 24 -3 38 10 42 23 39 17 -4 -6 -45 14
-63 44 -39 13 11 15 11 9 1 -11 -19 2 -62 19 -62 8 0 24 10 35 22 21 23 22 23
36 4 20 -27 18 -35 -11 -46 -20 -8 -25 -16 -25 -45 0 -20 6 -51 14 -69 20 -47
57 -54 149 -29 14 4 17 11 13 29 -7 24 -6 24 35 -6 23 -16 47 -30 53 -30 13 0
145 114 164 142 14 19 9 53 -6 44 -5 -3 -16 3 -24 14 -23 26 -52 15 -87 -32
-18 -25 -32 -35 -36 -28 -11 18 37 173 58 189 13 9 18 22 15 43 -4 24 0 32 23
43 15 8 30 23 33 32 5 16 16 18 85 15 140 -7 252 45 267 124 4 23 15 38 32 46
14 7 30 21 36 31 9 15 6 22 -15 41 l-27 23 48 41 c99 85 131 213 73 295 -34
49 -120 97 -175 97 -35 0 -38 2 -38 28 0 31 -24 71 -36 59 -4 -4 -2 -13 4 -19
18 -18 15 -43 -8 -63 -31 -28 -24 -33 40 -28 51 5 67 2 115 -21 94 -47 129
-130 91 -220 -18 -43 -78 -109 -133 -147 -47 -33 -48 -49 -2 -49 18 0 32 -6
36 -16 7 -20 -13 -34 -49 -34 -31 0 -33 -3 -18 -31 18 -33 -14 -77 -77 -106
-42 -19 -73 -26 -131 -27 -43 0 -87 3 -99 7 -17 6 -24 3 -35 -19 -13 -27 -43
-53 -51 -44 -2 3 -7 37 -10 75 l-7 70 66 -3 c133 -7 199 43 227 172 9 42 26
95 37 116 34 66 22 92 -29 66 l-30 -16 6 55 c5 47 3 55 -11 55 -9 0 -25 -15
-36 -33 l-20 -32 0 47 c0 47 -13 69 -32 50 -11 -11 -38 -142 -38 -187 0 -48
-31 -95 -80 -122 l-45 -25 32 28 c39 34 67 97 59 131 -4 13 -9 44 -12 70 -7
60 -34 112 -77 150 -26 22 -32 34 -26 49 8 24 -14 82 -35 90 -14 5 -14 8 -1
27 8 12 15 28 15 36 0 8 9 34 21 58 31 65 52 203 46 303 -11 168 -63 260 -245
439 -158 154 -240 216 -366 278 -55 26 -115 63 -134 81 -19 17 -39 32 -44 32
-6 0 -7 8 -3 18 19 48 27 150 17 226 -6 45 -14 89 -17 99 -5 12 -2 17 12 17
40 0 57 46 27 71 -13 11 -14 15 -2 23 50 39 66 138 28 176 -11 11 -28 20 -39
20 -26 0 -82 -40 -107 -78 l-22 -32 -25 42 c-34 58 -122 144 -169 166 -20 9
-38 24 -38 33 0 8 -7 40 -16 70 -12 42 -28 66 -70 107 -31 30 -70 60 -89 68
-53 22 -134 26 -195 9z m152 -25 c52 -15 134 -83 159 -133 27 -53 36 -159 19
-213 -39 -119 -138 -164 -284 -130 -128 30 -203 89 -221 173 -14 71 28 203 84
259 44 44 164 65 243 44z m-542 -60 c19 -6 42 -15 50 -20 13 -9 11 -13 -9 -28
-20 -13 -47 -17 -133 -17 -59 0 -108 3 -108 6 0 13 41 42 77 55 46 16 77 17
123 4z m881 -298 c32 -34 68 -81 79 -102 23 -45 37 -50 49 -17 13 33 88 97
115 97 17 0 36 -37 36 -69 0 -47 -30 -88 -78 -108 -38 -16 -33 -30 13 -35 34
-3 42 -31 10 -36 -41 -7 -48 -11 -36 -26 25 -30 36 -261 14 -299 -3 -5 -16 2
-29 14 -22 20 -26 21 -51 8 -16 -7 -31 -15 -35 -17 -5 -2 -8 11 -8 30 0 42 -8
54 -43 67 -34 13 -68 6 -123 -25 -51 -30 -54 -30 -54 1 0 47 -31 177 -56 232
-13 30 -42 72 -65 93 l-41 37 29 6 c71 15 153 127 153 210 l0 38 31 -18 c17
-10 58 -46 90 -81z m-1033 -26 c3 -3 -6 -10 -19 -15 -18 -7 -27 -5 -36 7 -7 9
-13 19 -13 23 0 8 58 -6 68 -15z m383 -20 c12 -15 46 -41 76 -58 l55 -31 -6
-96 c-6 -76 -5 -93 5 -84 7 7 14 49 17 93 4 78 6 81 26 75 11 -3 53 -9 93 -12
68 -5 73 -8 101 -42 47 -58 64 -98 52 -120 -5 -11 -11 -30 -12 -43 0 -13 -4
-3 -8 22 l-6 45 -13 -30 c-7 -16 -11 -47 -9 -67 2 -21 -1 -40 -7 -42 -14 -6
25 -36 46 -36 30 0 69 -22 69 -39 0 -9 3 -26 6 -39 6 -21 4 -22 -19 -17 -31 8
-57 -5 -127 -65 -30 -26 -66 -51 -80 -55 -18 -5 -14 1 17 24 51 37 73 77 73
128 l-1 38 -19 -55 c-12 -35 -30 -65 -52 -83 l-33 -28 -6 33 c-3 19 -9 39 -13
47 -5 7 -1 18 10 26 24 18 11 43 -35 67 l-33 17 36 3 c20 2 37 8 39 13 3 12
-309 29 -370 20 -79 -12 -44 -25 70 -26 l112 -1 -64 -13 c-90 -18 -102 -46
-34 -79 l35 -17 -7 -57 c-4 -31 -8 -58 -10 -60 -5 -6 -65 28 -86 49 -12 12
-19 33 -19 56 0 32 -2 35 -13 20 -10 -15 -17 -16 -46 -6 -21 8 -69 10 -132 6
-71 -4 -99 -2 -100 6 0 7 -12 -13 -26 -43 l-27 -55 -6 45 c-6 45 -3 51 37 77
17 12 17 13 -2 28 -16 13 -41 16 -128 13 -98 -3 -122 1 -98 16 5 3 64 6 131 7
88 0 120 4 117 12 -3 9 -38 11 -121 9 -136 -4 -131 -11 -85 111 51 139 61 156
105 197 55 50 103 74 200 99 109 27 127 29 221 27 76 -2 84 -4 104 -30z m-451
-6 c0 -3 -22 -21 -49 -38 -27 -18 -60 -47 -75 -66 -29 -39 -86 -188 -121 -321
-23 -85 -74 -222 -75 -199 0 21 60 271 79 325 36 106 92 198 170 282 34 37 47
45 57 36 8 -6 14 -15 14 -19z m920 -387 c0 -14 -26 -18 -34 -5 -3 5 -2 35 1
68 l6 59 13 -55 c7 -30 13 -61 14 -67z m-64 0 c-11 -11 -17 4 -9 23 7 18 8 18
11 1 2 -10 1 -21 -2 -24z m-342 -78 c-27 -27 -64 -32 -111 -14 -27 10 -27 11
-9 25 12 9 44 14 82 14 l63 0 -25 -25z m635 -9 c10 -8 12 -26 7 -71 -5 -58 -5
-59 12 -39 9 12 30 30 46 40 28 18 29 18 47 -5 11 -13 19 -36 19 -52 0 -26 2
-28 19 -20 10 6 21 7 25 4 15 -16 4 -73 -25 -118 -29 -45 -29 -48 -7 -33 12 8
32 38 44 66 l20 51 30 -20 c16 -11 65 -38 109 -61 112 -57 191 -115 269 -199
119 -128 196 -262 238 -414 19 -69 22 -106 22 -265 1 -207 -4 -230 -54 -230
-16 0 -32 -5 -36 -11 -4 -8 -12 -2 -21 15 -21 40 -38 32 -64 -31 -12 -32 -24
-60 -25 -62 -2 -1 -13 4 -26 13 -36 25 -82 20 -115 -12 l-27 -28 -34 22 c-99
67 -251 89 -407 59 -50 -10 -112 -29 -140 -44 -105 -55 -199 -179 -212 -281
-5 -36 -8 -39 -43 -45 -21 -4 -46 -12 -56 -19 -14 -11 -20 -10 -36 6 -20 20
-78 24 -96 6 -9 -9 -16 -5 -32 14 -50 64 -197 128 -293 128 -30 0 -74 -7 -97
-15 -42 -15 -44 -15 -83 12 -100 70 -141 175 -172 443 l-14 125 5 -115 c3 -63
11 -146 18 -185 8 -38 12 -72 10 -74 -2 -2 -12 17 -23 43 -27 62 -36 59 -11
-4 24 -61 25 -70 5 -70 -30 0 -96 73 -130 144 -19 39 -35 64 -35 56 0 -8 11
-39 25 -69 14 -30 24 -55 22 -57 -2 -2 -19 5 -38 15 -42 23 -109 118 -132 190
-22 70 -22 190 1 257 42 121 202 322 315 397 29 19 89 50 135 70 l82 36 -43
-52 c-46 -54 -121 -178 -157 -260 -24 -54 -50 -179 -50 -240 0 -64 11 -36 26
65 18 121 33 162 100 281 69 121 148 207 262 285 109 75 124 82 284 143 102
39 147 62 201 105 80 62 97 67 97 24 l0 -30 36 40 c75 83 155 113 203 76z
m-1306 -6 c-4 -15 -14 -20 -39 -20 -19 0 -34 4 -34 10 0 13 31 29 57 30 16 0
20 -5 16 -20z m-91 -103 c-12 -29 -22 -65 -22 -80 0 -22 -4 -28 -17 -25 -23 4
-19 32 14 116 18 44 29 60 36 53 8 -8 4 -27 -11 -64z m198 26 c0 -27 -6 -59
-13 -73 -29 -57 -150 -101 -184 -67 -14 14 -14 20 2 64 9 26 19 62 22 79 4 23
9 31 21 28 14 -4 63 2 145 15 4 0 7 -20 7 -46z m708 19 c24 -31 6 -100 -26
-102 -4 -1 -27 -5 -52 -10 -25 -5 -64 -6 -88 -3 l-42 6 2 66 3 67 95 -4 c72
-3 98 -8 108 -20z m-370 -11 c12 -6 22 -17 22 -24 0 -20 51 -65 87 -77 19 -7
33 -20 37 -35 3 -13 8 -29 11 -37 4 -9 -7 -20 -27 -30 -18 -8 -67 -40 -108
-70 -42 -29 -102 -64 -135 -78 -77 -30 -192 -87 -227 -112 l-28 -19 0 48 c0
27 10 78 21 112 19 56 20 70 10 116 -13 58 -9 75 29 125 15 19 35 50 44 68 14
28 22 32 55 32 l38 0 -4 -52 c-2 -39 -1 -48 6 -33 8 17 10 18 10 3 1 -22 8
-23 27 -4 16 16 19 51 4 41 -5 -3 -10 3 -10 14 0 12 -5 21 -11 21 -5 0 -8 4
-5 8 7 11 126 -2 154 -17z m247 -131 l40 0 -44 -21 c-51 -22 -66 -20 -74 11
-5 19 -2 21 16 16 12 -3 40 -6 62 -6z m-616 -184 c-14 -38 -21 -83 -21 -124 0
-43 -5 -65 -13 -69 -30 -11 -123 56 -151 109 -18 35 -18 99 1 145 8 19 15 44
15 54 0 16 8 19 43 19 23 0 60 9 82 19 l40 18 13 -56 c12 -51 11 -61 -9 -115z
m-192 110 c-3 -17 -12 -47 -20 -66 l-15 -35 -1 78 c-1 76 -1 77 20 66 17 -9
20 -17 16 -43z m2271 -415 c53 -80 81 -156 88 -244 6 -71 -10 -238 -25 -265
-5 -8 -11 44 -14 119 -8 201 -53 345 -158 503 l-40 61 54 -56 c29 -31 72 -84
95 -118z m-2273 -697 c22 -9 59 -21 82 -28 24 -6 55 -24 70 -38 32 -31 77 -50
97 -42 10 4 22 -8 35 -35 22 -43 83 -111 115 -128 19 -10 18 -12 -12 -38 -47
-39 -39 -50 10 -15 56 41 138 64 202 57 108 -11 225 -74 274 -147 30 -45 44
-49 40 -14 -3 25 1 29 25 32 20 2 36 -5 58 -27 32 -33 55 -41 45 -16 -6 18 22
35 58 35 25 0 26 -3 26 -53 0 -98 47 -211 105 -253 23 -18 25 -23 15 -48 -8
-23 -14 -27 -33 -21 -27 9 -47 9 -110 -1 -27 -4 -73 -2 -110 5 -63 13 -147 54
-147 72 0 6 -5 7 -10 4 -8 -5 -8 -11 0 -20 14 -17 -3 -29 -69 -49 -82 -24
-178 -21 -231 7 -24 12 -52 35 -63 49 l-20 27 24 21 24 20 -25 -5 c-191 -37
-330 -45 -415 -24 -42 11 -88 42 -96 67 -3 8 -17 7 -49 -5 -74 -27 -142 7 -94
46 19 15 17 16 -40 17 -195 2 -337 184 -242 308 43 57 96 76 216 76 123 0 124
12 2 20 -84 5 -87 6 -90 31 -4 36 32 77 92 105 62 29 177 32 241 8z m2195 -25
c12 -22 20 -54 18 -71 l-3 -30 -27 22 c-18 14 -28 31 -28 48 0 29 10 72 16 72
2 0 13 -18 24 -41z m49 22 c-26 -41 27 -72 58 -33 12 15 13 13 11 -18 -2 -27
-8 -35 -27 -40 -23 -5 -21 -7 15 -18 50 -15 115 -100 113 -149 0 -10 -7 1 -15
24 -19 52 -81 110 -128 119 -29 5 -36 11 -36 30 0 13 -5 34 -11 48 -14 29 -6
56 16 56 12 0 13 -3 4 -19z m-105 -45 c-6 -38 -4 -45 16 -56 12 -6 19 -14 17
-17 -3 -2 -19 3 -37 12 -23 12 -30 21 -25 33 4 9 12 29 17 45 14 39 18 33 12
-17z m-335 6 c72 -28 119 -62 124 -89 5 -26 -8 -31 -17 -7 -5 14 -15 15 -55
10 -37 -5 -51 -3 -61 9 -16 20 -37 19 -48 -2 -9 -15 -13 -14 -44 5 -47 29 -51
28 -46 -13 l4 -35 -59 0 -59 0 5 -29 c5 -25 2 -31 -16 -37 -42 -12 -48 -23
-32 -55 8 -15 15 -30 15 -33 0 -2 -25 -16 -55 -30 -30 -14 -55 -31 -55 -39 0
-8 12 -31 26 -53 25 -37 26 -39 9 -67 -16 -26 -16 -31 -2 -44 12 -12 13 -21 4
-40 -8 -17 -7 -27 1 -35 9 -9 1 -16 -36 -30 -59 -23 -62 -22 -62 2 0 30 -14
24 -48 -17 l-29 -37 -28 18 c-15 10 -40 46 -57 83 -51 109 -49 255 7 368 30
62 114 148 171 176 107 51 336 62 443 21z m265 -27 c26 -20 25 -70 -2 -97 -40
-41 -122 -16 -122 37 0 12 9 34 21 49 23 30 71 35 103 11z m46 -104 c-27 -20
-59 -54 -72 -76 -44 -79 -20 -193 51 -242 39 -27 146 -40 192 -24 38 13 50 7
19 -9 -15 -8 -19 -15 -11 -19 14 -9 27 -82 36 -199 4 -51 12 -95 16 -98 16
-10 9 -33 -13 -45 -13 -8 -69 -14 -132 -15 l-108 -2 6 42 c21 127 25 189 16
238 -6 28 -11 53 -13 54 -1 1 -2 -48 -2 -109 -1 -125 -18 -209 -63 -296 -38
-76 -56 -80 -47 -10 l7 54 -22 -27 c-29 -38 -44 -36 -37 5 18 105 18 104 6 80
-13 -24 -31 -32 -24 -10 42 135 101 308 112 330 7 15 21 27 31 28 9 0 -6 9
-34 20 -29 11 -63 31 -76 44 -44 44 -61 150 -37 226 6 19 13 40 15 47 3 11 8
10 26 -2 26 -18 80 -21 110 -5 11 6 26 26 34 45 13 31 16 33 38 22 25 -11 25
-11 -24 -47z m-404 32 c23 -15 26 -15 42 0 15 16 18 15 37 -3 18 -17 27 -19
49 -10 40 15 51 13 65 -14 17 -31 6 -52 -15 -31 -22 22 -51 18 -79 -10 -29
-28 -31 -42 -9 -73 18 -25 46 -29 64 -7 16 19 6 45 -17 45 -13 0 -14 -3 -5
-12 19 -19 14 -30 -10 -26 -29 4 -35 34 -12 59 40 44 80 13 69 -56 -15 -101
32 -205 105 -235 17 -7 29 -18 26 -24 -3 -6 -15 -37 -28 -68 -15 -37 -28 -56
-36 -53 -7 3 -15 -2 -18 -10 -4 -10 -14 -13 -30 -9 -20 5 -24 2 -24 -15 0 -17
-4 -20 -29 -15 -21 4 -40 0 -64 -15 -46 -28 -84 -27 -108 3 -17 22 -22 23 -65
13 -40 -9 -47 -9 -56 6 -5 9 -16 17 -24 17 -8 0 -17 13 -21 30 -4 24 -10 30
-26 28 -30 -5 -45 26 -23 48 18 17 18 18 0 31 -17 13 -17 15 -1 42 16 27 16
29 -13 67 -16 21 -30 42 -30 45 0 4 27 18 60 33 63 28 69 38 45 70 -18 24 -19
36 -2 36 7 0 23 7 35 16 18 12 20 19 12 35 -10 18 -7 19 50 19 l62 0 -7 30
c-8 35 -4 36 31 13z m609 -20 c13 -10 34 -38 47 -63 13 -25 31 -56 41 -69 37
-51 14 -141 -46 -173 -14 -7 -11 0 11 19 37 36 41 69 11 107 -22 28 -75 36
-97 14 -6 -6 -26 -13 -44 -15 -62 -7 -99 -71 -65 -116 7 -10 30 -24 52 -32
l40 -14 -58 -1 c-104 0 -159 42 -172 135 -6 40 13 119 28 115 4 -1 19 6 33 15
29 19 31 18 36 -10 2 -13 -3 -21 -17 -23 -11 -2 -24 -8 -30 -14 -7 -7 1 -8 23
-3 17 4 32 3 32 -2 0 -5 7 -18 16 -29 15 -18 15 -17 10 14 -4 24 -2 32 9 32 8
0 15 5 15 11 0 6 -9 9 -19 6 -18 -4 -31 9 -31 33 0 8 83 40 104 40 5 0 0 -10
-12 -23 -22 -24 -32 -51 -10 -29 9 9 15 7 25 -6 12 -15 13 -14 8 13 -3 17 -1
36 4 43 6 10 10 3 15 -22 5 -26 12 -36 26 -36 10 0 22 5 25 10 3 6 2 10 -4 10
-6 0 -7 8 -4 18 6 14 4 15 -9 4 -13 -10 -16 -9 -21 7 -2 11 0 25 7 31 8 10 3
11 -26 7 -30 -5 -38 -3 -38 10 0 20 50 12 85 -14z m-119 -1 c7 -4 -14 -19 -52
-37 -49 -24 -59 -26 -46 -11 16 18 72 56 82 56 3 0 10 -4 16 -8z m343 -104 l6
-63 28 55 27 55 -5 -47 c-7 -71 0 -82 36 -56 36 27 45 19 25 -20 -8 -16 -25
-69 -37 -118 -18 -73 -28 -95 -56 -121 -48 -46 -121 -63 -201 -47 -22 5 -32
13 -37 33 -3 14 -8 34 -11 44 -4 11 0 17 11 17 28 0 134 59 150 84 13 19 44
197 45 250 0 5 3 6 7 3 3 -4 9 -35 12 -69z m-169 -87 c5 -11 10 -27 10 -35 0
-13 -4 -13 -35 0 -44 18 -102 18 -139 -1 -38 -20 -44 -13 -10 14 15 11 39 21
55 21 15 0 31 5 34 10 11 18 73 12 85 -9z m-13 -64 c15 -15 14 -18 -28 -36
-59 -27 -101 -27 -135 3 l-28 23 30 17 c38 21 137 17 161 -7z m-858 -289 c6
-50 8 -53 34 -50 21 2 27 -1 27 -18 0 -24 15 -25 90 -5 30 8 56 15 58 15 1 0
2 -15 3 -32 1 -18 4 -44 8 -58 6 -22 11 -24 50 -21 36 2 42 0 39 -16 -2 -14 5
-19 35 -21 20 -2 37 -4 37 -5 0 -1 -4 -18 -10 -36 -6 -23 -6 -39 1 -47 14 -17
-56 -85 -119 -116 -89 -43 -258 -35 -363 18 -96 48 -139 130 -139 262 0 60 31
144 63 171 15 12 17 11 17 -13 0 -14 1 -26 3 -26 1 0 36 13 77 29 41 16 76 28
78 26 2 -2 7 -28 11 -57z m461 17 c0 -8 -4 -15 -10 -15 -5 0 -10 7 -10 15 0 8
5 15 10 15 6 0 10 -7 10 -15z m-417 -25 c3 -13 0 -20 -9 -20 -8 0 -14 9 -14
20 0 11 4 20 9 20 5 0 11 -9 14 -20z m382 -71 c-10 -30 -19 -56 -21 -58 -4 -5
-66 41 -86 64 -38 45 -10 67 54 42 l40 -16 -6 32 -6 32 21 -21 c21 -22 21 -23
4 -75z m-261 55 c4 -9 5 -18 4 -19 -8 -8 -78 -22 -82 -17 -15 14 -3 32 27 41
45 13 44 13 51 -5z m126 -44 c10 -18 8 -20 -25 -20 -49 0 -47 36 2 39 7 1 17
-8 23 -19z m46 -51 c11 -9 29 -22 42 -28 35 -18 28 -41 -12 -41 -28 0 -35 4
-38 23 -3 19 -8 22 -44 19 -34 -3 -42 0 -47 17 -2 11 -3 21 -2 23 11 10 86 0
101 -13z m471 -129 c-5 -19 -16 -48 -24 -64 l-15 -30 -29 35 c-16 19 -29 37
-29 42 0 4 -5 7 -10 7 -13 0 14 -54 51 -101 l28 -36 -29 -28 c-18 -17 -33 -24
-42 -20 -33 20 -99 78 -127 114 -31 39 -31 40 -16 78 l15 38 119 0 118 0 -10
-35z m96 -105 c-2 -26 -1 -27 17 -10 11 10 20 13 20 7 0 -5 -34 -40 -75 -77
-75 -67 -75 -67 -101 -50 l-25 16 25 32 c13 18 29 31 34 30 6 -1 27 18 47 43
40 49 61 52 58 9z m-285 -46 c18 -16 31 -33 28 -38 -3 -5 3 -16 14 -26 25 -22
25 -35 2 -35 -9 0 -22 10 -27 22 -6 13 -19 24 -30 26 -19 3 -19 2 -2 -11 9 -8
17 -22 17 -31 0 -13 -6 -15 -27 -10 -39 9 -44 16 -50 63 -5 33 -2 45 13 56 25
19 24 19 62 -16z"/>
<path d="M2345 4038 c-33 -17 -45 -40 -45 -80 0 -64 60 -103 119 -78 26 10 42
31 54 71 8 24 -21 75 -49 88 -31 14 -53 14 -79 -1z"/>
<path d="M1723 3688 c-41 -43 -73 -109 -73 -150 0 -42 13 -27 34 39 10 28 33
72 52 97 40 53 32 61 -13 14z"/>
<path d="M1727 3600 c-17 -27 -33 -80 -23 -80 10 0 47 81 43 93 -2 6 -11 0
-20 -13z"/>
<path d="M2248 3570 c-17 -41 -29 -92 -24 -97 9 -10 37 67 33 91 -3 16 -5 17
-9 6z"/>
<path d="M1657 3449 c-3 -12 -10 -18 -15 -15 -6 3 -25 0 -43 -8 -21 -9 -40
-11 -50 -6 -18 10 -129 9 -123 -1 3 -6 103 -19 144 -20 61 0 110 25 110 58 0
21 -17 15 -23 -8z"/>
<path d="M2160 3437 c0 -18 -149 -21 -271 -6 -85 11 -141 8 -127 -6 8 -9 202
-27 306 -29 l102 -2 0 28 c0 15 -2 28 -5 28 -3 0 -5 -6 -5 -13z"/>
<path d="M2220 3392 c0 -5 17 -12 38 -15 20 -4 53 -9 72 -12 35 -6 35 -6 10 8
-31 18 -120 32 -120 19z"/>
<path d="M1840 3361 c0 -12 5 -21 10 -21 6 0 10 6 10 14 0 8 -4 18 -10 21 -5
3 -10 -3 -10 -14z"/>
<path d="M2689 3071 c-13 -10 -33 -34 -43 -52 -18 -33 -18 -33 29 11 l48 45
-7 -45 c-6 -45 -6 -45 10 -17 16 30 16 68 -2 74 -6 2 -22 -5 -35 -16z"/>
<path d="M2759 3018 c-12 -23 -12 -23 10 -4 25 23 27 16 5 -25 -8 -17 -14 -33
-11 -35 6 -6 35 39 39 62 5 28 -28 30 -43 2z"/>
<path d="M1645 2920 c-4 -6 24 -11 74 -12 45 -1 91 -2 103 -2 12 -1 23 5 26
12 5 15 -193 18 -203 2z"/>
<path d="M3318 1799 c-36 -21 -16 -79 27 -79 43 0 59 44 27 73 -21 19 -30 20
-54 6z"/>
<path d="M3582 1598 c-39 -24 -37 -33 4 -18 20 8 30 8 32 1 2 -6 8 -11 13 -11
4 0 6 7 3 15 -4 9 0 15 10 15 9 0 16 5 16 10 0 16 -43 10 -78 -12z"/>
<path d="M3440 1555 c-20 -24 -6 -28 15 -5 10 11 13 20 8 20 -6 0 -16 -7 -23
-15z"/>
<path d="M3852 1467 c-31 -33 -27 -45 4 -16 l27 24 -12 -23 c-7 -13 -11 -26
-8 -28 6 -6 23 17 31 44 10 30 -14 29 -42 -1z"/>
<path d="M1888 3923 c11 -16 27 -45 35 -65 9 -21 21 -38 26 -38 14 0 14 4 -4
48 -17 38 -52 82 -67 82 -5 0 -1 -12 10 -27z"/>
<path d="M4345 2671 c-142 -35 -274 -224 -275 -392 0 -160 109 -272 294 -301
132 -20 248 13 334 96 71 67 87 106 87 211 0 83 -3 95 -33 150 -36 66 -122
169 -155 187 -12 6 1 -13 28 -43 108 -115 147 -194 147 -299 2 -178 -156 -300
-372 -288 -176 10 -279 89 -311 237 -20 97 29 246 112 336 48 52 80 72 154 97
51 16 45 22 -10 9z"/>
<path d="M4211 2453 c-17 -15 -22 -35 -30 -138 -10 -133 -6 -145 50 -145 98 0
144 81 77 134 -31 24 -32 25 -14 44 56 63 -19 158 -83 105z m69 -33 c7 -14 8
-26 0 -39 -11 -21 -48 -51 -63 -51 -8 0 0 86 10 103 9 15 43 6 53 -13z m17
-141 c34 -29 -4 -79 -59 -79 -26 0 -28 3 -28 43 0 24 3 47 7 51 10 10 62 -1
80 -15z"/>
<path d="M4450 2283 c-8 -31 -20 -58 -26 -60 -7 -2 -22 17 -34 41 -22 47 -37
63 -47 52 -8 -8 36 -103 54 -118 20 -16 17 -25 -28 -73 -48 -52 -44 -78 7 -39
41 32 102 151 106 208 4 60 -16 53 -32 -11z"/>
<path d="M4526 2319 c-21 -16 -26 -29 -26 -64 0 -73 62 -105 132 -69 39 20 24
38 -19 22 -25 -9 -37 -9 -60 1 l-28 14 26 11 c60 25 80 74 40 96 -27 14 -35
13 -65 -11z m54 -24 c0 -12 -28 -35 -44 -35 -11 0 -6 26 6 38 17 17 38 15 38
-3z"/>
<path d="M3993 1950 c-67 -44 -125 -85 -128 -90 -14 -22 17 -7 121 61 60 39
115 74 123 78 7 5 12 14 10 20 -3 7 -53 -21 -126 -69z"/>
<path d="M3725 1951 c-41 -10 -95 -39 -95 -51 0 -6 19 0 43 12 36 20 57 23
150 23 59 0 107 2 107 6 0 17 -146 24 -205 10z"/>
</g>
</svg>
